<?xml version="1.0" encoding="iso-8859-1"?>
<!-- Generator: Adobe Illustrator 17.1.0, SVG Export Plug-In . SVG Version: 6.00 Build 0)  -->
<!DOCTYPE svg PUBLIC "-//W3C//DTD SVG 1.1//EN" "http://www.w3.org/Graphics/SVG/1.1/DTD/svg11.dtd">
<svg xmlns="http://www.w3.org/2000/svg" xmlns:xlink="http://www.w3.org/1999/xlink" version="1.1" id="Capa_1" x="0px" y="0px" viewBox="0 0 418.694 418.694" style="enable-background:new 0 0 418.694 418.694;" xml:space="preserve" width="512px" height="512px">
<g>
	<path d="M93.77,179.204c1.223,0.492,2.485,0.725,3.728,0.725c3.962,0,7.713-2.371,9.281-6.271   c5.661-14.078,13.91-26.74,24.517-37.637c20.932-21.502,48.651-33.344,78.051-33.344c5.523,0,10-4.477,10-10   c0-5.523-4.477-10-10-10c-34.845,0-67.653,13.99-92.382,39.392c-12.434,12.773-22.104,27.619-28.742,44.126   C86.162,171.319,88.645,177.144,93.77,179.204z" fill="#27160e"/>
	<path d="M415.061,248.814c-3.23-2.667-7.777-3.037-11.397-0.933l-18.203,10.592v-40.16c0-99.603-79.005-180.636-176.115-180.636   S33.232,118.71,33.232,218.311l-0.007,40.158L15.03,247.881c-3.62-2.104-8.168-1.734-11.396,0.933   c-3.229,2.667-4.455,7.063-3.071,11.015l40.075,114.49c1.404,4.011,5.189,6.696,9.438,6.696h53.02c0.019,0,0.038,0.003,0.057,0.003   c0.014,0,0.028-0.002,0.043-0.003h53.016c0.007,0,0.014,0.001,0.021,0.001c0.005,0,0.011-0.001,0.017-0.001h106.198   c0.006,0,0.011,0.001,0.017,0.001c0.007,0,0.014-0.001,0.021-0.001H315.5c0.014,0,0.029,0.003,0.043,0.003   c0.019,0,0.038-0.002,0.057-0.003h53.019c4.25,0,8.035-2.685,9.439-6.696l40.075-114.49   C419.516,255.877,418.29,251.481,415.061,248.814z M209.347,57.676c86.082,0,156.115,72.061,156.115,160.636v40.149l-18.11-10.537   c-0.365-0.217-0.751-0.405-1.147-0.575c-0.105-0.045-0.211-0.085-0.317-0.127c-0.268-0.104-0.542-0.197-0.823-0.279   c-0.123-0.036-0.244-0.074-0.368-0.106c-0.059-0.015-0.115-0.036-0.174-0.05c-0.295-0.069-0.59-0.118-0.885-0.16   c-0.034-0.005-0.067-0.014-0.101-0.018c-0.401-0.052-0.8-0.074-1.196-0.078c-0.092-0.001-0.184,0.004-0.276,0.006   c-0.318,0.006-0.633,0.026-0.945,0.062c-0.099,0.011-0.198,0.022-0.297,0.036c-0.367,0.053-0.73,0.122-1.086,0.215   c-0.028,0.007-0.056,0.011-0.084,0.019c-0.384,0.104-0.759,0.234-1.126,0.382c-0.098,0.039-0.193,0.085-0.29,0.127   c-0.283,0.124-0.559,0.261-0.828,0.411c-0.061,0.034-0.126,0.057-0.186,0.092l-28.195,16.404l-28.188-16.404   c-0.007-0.004-0.014-0.006-0.021-0.01c-0.355-0.205-0.725-0.387-1.107-0.549c-0.079-0.033-0.159-0.061-0.239-0.092   c-0.291-0.115-0.588-0.216-0.893-0.303c-0.116-0.033-0.231-0.066-0.348-0.096c-0.291-0.072-0.589-0.13-0.891-0.177   c-0.1-0.015-0.198-0.038-0.298-0.05c-0.025-0.003-0.049-0.009-0.074-0.012c-0.371-0.043-0.738-0.062-1.103-0.064   c-0.082-0.001-0.162,0.007-0.244,0.009c-0.325,0.006-0.647,0.026-0.965,0.063c-0.106,0.012-0.211,0.027-0.316,0.043   c-0.323,0.048-0.641,0.111-0.954,0.189c-0.075,0.019-0.151,0.033-0.225,0.054c-0.392,0.108-0.777,0.237-1.15,0.391   c-0.048,0.02-0.093,0.044-0.141,0.065c-0.325,0.14-0.64,0.297-0.947,0.47c-0.047,0.026-0.097,0.044-0.144,0.071l-28.193,16.405   L214.37,247.88c-0.028-0.016-0.058-0.027-0.087-0.043c-0.356-0.203-0.723-0.389-1.105-0.548c-0.009-0.004-0.018-0.006-0.027-0.01   c-0.358-0.147-0.728-0.269-1.105-0.375c-0.095-0.027-0.191-0.05-0.286-0.074c-0.302-0.075-0.609-0.135-0.92-0.182   c-0.099-0.015-0.197-0.033-0.297-0.045c-0.394-0.047-0.792-0.079-1.198-0.079c-0.407,0-0.805,0.031-1.199,0.079   c-0.098,0.012-0.195,0.03-0.293,0.045c-0.314,0.047-0.623,0.108-0.927,0.184c-0.094,0.023-0.187,0.046-0.28,0.072   c-0.381,0.107-0.754,0.229-1.115,0.378c-0.006,0.003-0.013,0.005-0.02,0.007c-0.382,0.159-0.75,0.345-1.106,0.548   c-0.028,0.016-0.059,0.027-0.087,0.043l-28.209,16.406l-28.193-16.405c-0.042-0.025-0.088-0.041-0.13-0.065   c-0.324-0.183-0.656-0.35-1-0.496c-0.03-0.013-0.059-0.028-0.089-0.041c-0.382-0.158-0.777-0.291-1.18-0.401   c-0.055-0.015-0.111-0.026-0.167-0.04c-0.335-0.085-0.674-0.152-1.02-0.202c-0.09-0.013-0.18-0.026-0.271-0.037   c-0.336-0.039-0.675-0.062-1.019-0.066c-0.067-0.001-0.134-0.007-0.202-0.007c-0.367,0.003-0.738,0.021-1.111,0.065   c-0.025,0.003-0.049,0.009-0.074,0.012c-0.102,0.013-0.202,0.035-0.303,0.051c-0.3,0.047-0.596,0.104-0.885,0.176   c-0.118,0.029-0.235,0.063-0.352,0.097c-0.303,0.087-0.599,0.188-0.888,0.302c-0.081,0.032-0.162,0.059-0.242,0.093   c-0.382,0.162-0.751,0.343-1.105,0.549c-0.007,0.004-0.014,0.007-0.021,0.01l-28.187,16.404l-28.195-16.404   c-0.06-0.035-0.125-0.058-0.186-0.092c-0.27-0.15-0.546-0.287-0.829-0.411c-0.096-0.042-0.191-0.087-0.289-0.126   c-0.367-0.148-0.742-0.279-1.127-0.383c-0.028-0.008-0.057-0.012-0.086-0.019c-0.355-0.093-0.717-0.162-1.084-0.215   c-0.1-0.014-0.199-0.025-0.3-0.037c-0.312-0.036-0.625-0.056-0.942-0.062c-0.093-0.002-0.185-0.007-0.277-0.006   c-0.396,0.004-0.795,0.025-1.196,0.078c-0.033,0.004-0.066,0.013-0.099,0.018c-0.295,0.042-0.59,0.091-0.886,0.16   c-0.06,0.014-0.117,0.036-0.177,0.051c-0.122,0.031-0.242,0.069-0.362,0.104c-0.282,0.083-0.558,0.176-0.827,0.281   c-0.105,0.041-0.211,0.081-0.315,0.126c-0.397,0.171-0.783,0.359-1.148,0.576l-18.116,10.541l0.007-40.153   C53.232,129.737,123.265,57.676,209.347,57.676z M273.685,361.015l10.287-88.169l20.023,11.653c3.108,1.809,6.949,1.809,10.059,0   l13.19-7.674l-19.646,84.19H273.685z M219.343,361.015v-87.108l18.219,10.594c3.108,1.807,6.948,1.807,10.056-0.002l15.942-9.276   l-10.01,85.793H219.343z M165.145,361.015l-10.01-85.793l15.942,9.276c3.108,1.81,6.949,1.809,10.057,0.001l18.21-10.591v87.106   H165.145z M111.096,361.015l-19.646-84.19l13.19,7.674c3.108,1.809,6.95,1.808,10.059,0l20.023-11.653l10.287,88.169H111.096z    M28.391,278.796l9.802,5.704c0.029,0.017,0.061,0.028,0.09,0.045c0.355,0.202,0.72,0.387,1.101,0.546   c0.012,0.005,0.024,0.008,0.036,0.013c0.355,0.146,0.722,0.267,1.096,0.372c0.098,0.027,0.195,0.051,0.293,0.076   c0.298,0.074,0.602,0.134,0.91,0.18c0.103,0.016,0.204,0.035,0.307,0.047c0.392,0.047,0.789,0.078,1.193,0.078   c0.001,0,0.001,0,0.001,0c0.405,0,0.802-0.031,1.195-0.078c0.104-0.012,0.206-0.031,0.309-0.047c0.308-0.047,0.611-0.106,0.91-0.18   c0.098-0.024,0.195-0.048,0.293-0.075c0.376-0.106,0.745-0.227,1.102-0.374c0.01-0.004,0.02-0.007,0.03-0.011   c0.381-0.158,0.746-0.344,1.101-0.546c0.03-0.017,0.061-0.028,0.091-0.045l21.529-12.527l20.779,89.043H57.17L28.391,278.796z    M361.524,361.015h-33.388l20.778-89.043l21.529,12.527c0.011,0.006,0.023,0.01,0.034,0.017c0.722,0.417,1.501,0.743,2.322,0.97   c0.072,0.02,0.144,0.037,0.216,0.056c0.324,0.082,0.653,0.147,0.989,0.196c0.086,0.013,0.17,0.029,0.256,0.039   c0.395,0.047,0.794,0.079,1.202,0.079c0.002,0,0.004,0,0.006,0c0.013,0,0.027-0.002,0.04-0.002c0.387-0.002,0.766-0.03,1.141-0.074   c0.121-0.014,0.24-0.036,0.36-0.055c0.281-0.044,0.558-0.098,0.831-0.165c0.124-0.03,0.247-0.06,0.369-0.095   c0.316-0.09,0.626-0.195,0.929-0.315c0.066-0.026,0.134-0.046,0.2-0.073c0.351-0.148,0.689-0.319,1.018-0.505   c0.047-0.027,0.098-0.045,0.145-0.072l9.802-5.704L361.524,361.015z" fill="#27160e"/>
</g>
<g>
</g>
<g>
</g>
<g>
</g>
<g>
</g>
<g>
</g>
<g>
</g>
<g>
</g>
<g>
</g>
<g>
</g>
<g>
</g>
<g>
</g>
<g>
</g>
<g>
</g>
<g>
</g>
<g>
</g>
</svg>
